# xmcd CD database file
#
# Track frame offsets:
#	150
#	19468
#	38680
#	63842
#	103169
#	124668
#	143115
#	167148
#	192436
#	215151
#	233552
#	264597
#
# Disc length: 4051 seconds
#
# Revision: 0
# Processed by: cddbd v1.5.2PL0 Copyright (c) Steve Scherf et al.
# Submitted via: CDex 1.51
#
DISCID=ae0fd10c
DTITLE=Dana Gillespie - Live With The London Blues Band
DYEAR=2007
DGENRE=Blues
TTITLE0=Big Boy
TTITLE1=Your Mind Is On Vacation
TTITLE2=Ten Ton Blocks
TTITLE3=Big Daddy Blues
TTITLE4=Experienced
TTITLE5=Be My Sugar
TTITLE6=Up Your Sleeve
TTITLE7=Too Blue To Boogie
TTITLE8=Timeless
TTITLE9=Staying Power
TTITLE10=St. Louis Blues
TTITLE11=A Lotta What You Got
EXTD=YEAR: 2007
EXTT0=
EXTT1=
EXTT2=
EXTT3=
EXTT4=
EXTT5=
EXTT6=
EXTT7=
EXTT8=
EXTT9=
EXTT10=
EXTT11=
PLAYORDER=
